<svg
    width="21"
    height="20"
    viewBox="0 0 21 20"
    fill="none"
    xmlns="http://www.w3.org/2000/svg"
  >
    <path
      d="M17.2 5.68333L12.4 2.325C11.0917 1.40833 9.08333 1.45833 7.825 2.43333L3.65 5.69167C2.81667 6.34167 2.15833 7.675 2.15833 8.725V14.475C2.15833 16.6 3.88333 18.3333 6.00833 18.3333H14.9917C17.1167 18.3333 18.8417 16.6083 18.8417 14.4833V8.83333C18.8417 7.70833 18.1167 6.325 17.2 5.68333ZM11.125 15C11.125 15.3417 10.8417 15.625 10.5 15.625C10.1583 15.625 9.875 15.3417 9.875 15V12.5C9.875 12.1583 10.1583 11.875 10.5 11.875C10.8417 11.875 11.125 12.1583 11.125 12.5V15Z"
      fill="white"
    />
  </svg>