<svg width="180" height="44" viewBox="0 0 180 44" fill="none" xmlns="http://www.w3.org/2000/svg">
<g clip-path="url(#clip0_14_15797)">
<path d="M17.3591 26.136V35.2251C17.3591 35.5736 17.209 35.9078 16.9417 36.154C16.6746 36.4004 16.3121 36.5388 15.9341 36.5388C15.5562 36.5388 15.1938 36.4004 14.9265 36.154C14.6592 35.9078 14.5091 35.5736 14.5091 35.2251V26.1486C14.9059 26.4157 15.3816 26.5648 15.8727 26.576C16.4081 26.5901 16.9327 26.4348 17.3591 26.136ZM29.4955 23.5086C29.1338 23.5086 28.7869 23.6411 28.5312 23.8768C28.2756 24.1125 28.1318 24.4323 28.1318 24.7657V26.3497C28.1318 26.6982 28.282 27.0323 28.5492 27.2786C28.8164 27.525 29.1788 27.6634 29.5568 27.6634C29.9348 27.6634 30.2973 27.525 30.5644 27.2786C30.8317 27.0323 30.9818 26.6982 30.9818 26.3497V24.8286C30.9925 24.6483 30.9608 24.468 30.8891 24.3001C30.8174 24.1321 30.7073 23.9802 30.5662 23.855C30.4252 23.7298 30.2565 23.634 30.0719 23.5742C29.8871 23.5145 29.6905 23.4921 29.4955 23.5086ZM11.4137 29.5806C10.923 29.567 10.448 29.4181 10.05 29.1531V38.2674C10.05 38.6175 10.2009 38.9533 10.4694 39.2009C10.7379 39.4484 11.1021 39.5874 11.4818 39.5874C11.8616 39.5874 12.2258 39.4484 12.4943 39.2009C12.7628 38.9533 12.9137 38.6175 12.9137 38.2674V29.216C12.4684 29.4814 11.943 29.6091 11.4137 29.5806ZM25.05 20.7806C24.8652 20.772 24.6806 20.7983 24.5072 20.8576C24.3338 20.917 24.1754 21.0082 24.0413 21.1258C23.9074 21.2434 23.8009 21.3849 23.7281 21.5416C23.6554 21.6984 23.6179 21.8672 23.6182 22.0377V29.04C23.6182 29.3901 23.769 29.7259 24.0375 29.9734C24.3062 30.221 24.6702 30.36 25.05 30.36C25.4298 30.36 25.794 30.221 26.0625 29.9734C26.331 29.7259 26.4818 29.3901 26.4818 29.04V22.1257C26.4927 21.9443 26.4608 21.7629 26.3883 21.5939C26.3157 21.425 26.2045 21.2725 26.0618 21.147C25.9192 21.0216 25.7489 20.926 25.5625 20.8672C25.3761 20.8082 25.1779 20.7872 24.9818 20.8057L25.05 20.7806ZM20.5227 23.4708C20.0091 23.4676 19.5092 23.3184 19.0909 23.0434V32.1828C19.0909 32.533 19.2417 32.8687 19.5102 33.1163C19.7789 33.3638 20.143 33.5028 20.5227 33.5028C20.9025 33.5028 21.2666 33.3638 21.5352 33.1163C21.8037 32.8687 21.9546 32.533 21.9546 32.1828V23.056C21.522 23.3531 20.9939 23.5079 20.4546 23.496L20.5227 23.4708ZM8.3182 30.4731V4.94057C8.31461 4.62934 8.17797 4.332 7.93797 4.11309C7.69797 3.89418 7.37399 3.77141 7.03638 3.77142H6.73638C6.39877 3.77141 6.07478 3.89418 5.83478 4.11309C5.59478 4.332 5.45815 4.62934 5.45456 4.94057V30.4731C5.45456 30.7865 5.58961 31.0871 5.83 31.3088C6.07038 31.5304 6.39642 31.6549 6.73638 31.6549H7.03638C7.37635 31.6549 7.70238 31.5304 7.94276 31.3088C8.18315 31.0871 8.3182 30.7865 8.3182 30.4731ZM11.5636 28.6126H11.2637C10.9237 28.6126 10.5977 28.4881 10.3573 28.2665C10.1169 28.0448 9.98183 27.7443 9.98183 27.4309V7.98285C9.98543 7.67163 10.1221 7.37427 10.3621 7.15538C10.6021 6.93647 10.926 6.8137 11.2637 6.81371H11.5636C11.9013 6.8137 12.2252 6.93647 12.4652 7.15538C12.7052 7.37427 12.8419 7.67163 12.8455 7.98285V27.456C12.8455 27.7694 12.7104 28.07 12.47 28.2916C12.2297 28.5133 11.9036 28.6377 11.5636 28.6377V28.6126ZM16.0773 25.6206H15.7637C15.4274 25.6206 15.1047 25.4974 14.8669 25.2781C14.6291 25.0589 14.4955 24.7616 14.4955 24.4514V11C14.4937 10.8454 14.5252 10.692 14.5881 10.5487C14.6509 10.4054 14.7441 10.2751 14.862 10.1652C14.98 10.0553 15.1204 9.96801 15.2752 9.90847C15.43 9.84893 15.5959 9.81827 15.7637 9.81828H16.0773C16.4149 9.8216 16.7374 9.94755 16.9748 10.1688C17.2124 10.3901 17.3455 10.6888 17.3455 11V24.4514C17.3455 24.7616 17.2118 25.0589 16.974 25.2781C16.7362 25.4974 16.4137 25.6206 16.0773 25.6206ZM20.5909 22.5406H20.3046C19.9669 22.5406 19.6429 22.4179 19.4029 22.1989C19.1629 21.98 19.0263 21.6827 19.0227 21.3714V14.1303C19.0116 13.9689 19.0364 13.8071 19.0958 13.6548C19.1552 13.5027 19.2479 13.3633 19.368 13.2455C19.4882 13.1276 19.6332 13.0338 19.7944 12.9697C19.9555 12.9057 20.1291 12.8728 20.3046 12.8731H20.6046C20.9445 12.8731 21.2706 12.9976 21.511 13.2192C21.7514 13.4409 21.8864 13.7414 21.8864 14.0549V21.3463C21.8881 21.5025 21.8564 21.6575 21.7927 21.8024C21.7292 21.9472 21.6351 22.0789 21.5157 22.1901C21.3966 22.3011 21.2547 22.3892 21.0982 22.4494C20.9418 22.5096 20.7741 22.5406 20.6046 22.5406H20.5909ZM25.1182 19.8377H24.8182C24.4782 19.8377 24.1522 19.7133 23.9118 19.4916C23.6714 19.27 23.5364 18.9694 23.5364 18.656V16.7829C23.5399 16.4716 23.6766 16.1743 23.9166 15.9554C24.1566 15.7364 24.4806 15.6137 24.8182 15.6137H25.1182C25.4558 15.6137 25.7798 15.7364 26.0198 15.9554C26.2598 16.1743 26.3965 16.4716 26.4 16.7829V18.656C26.4 18.9673 26.2669 19.266 26.0294 19.4872C25.792 19.7085 25.4695 19.8344 25.1318 19.8377H25.1182Z" fill="url(#paint0_linear_14_15797)"/>
<path d="M43.2398 29.7886V12.9886H45.8078L53.1518 25.2526H51.8078L59.0318 12.9886H61.5998L61.6238 29.7886H58.6718L58.6478 17.6206H59.2718L53.1278 27.8686H51.7358L45.4958 17.6206H46.2158V29.7886H43.2398ZM73.2177 29.9566C72.1297 29.9566 71.1697 29.7566 70.3377 29.3566C69.5057 28.9406 68.8577 28.3166 68.3937 27.4846C67.9297 26.6366 67.6977 25.5726 67.6977 24.2926V16.9726H70.6977V23.8846C70.6977 25.0366 70.9537 25.9006 71.4657 26.4766C71.9937 27.0366 72.7377 27.3166 73.6977 27.3166C74.4017 27.3166 75.0097 27.1726 75.5217 26.8846C76.0497 26.5966 76.4577 26.1646 76.7457 25.5886C77.0497 25.0126 77.2017 24.3006 77.2017 23.4526V16.9726H80.2017V29.7886H77.3457V26.3326L77.8497 27.3886C77.4177 28.2206 76.7857 28.8606 75.9537 29.3086C75.1217 29.7406 74.2097 29.9566 73.2177 29.9566ZM90.0096 29.9566C88.9376 29.9566 87.9056 29.8206 86.9136 29.5486C85.9376 29.2606 85.1616 28.9166 84.5856 28.5166L85.7376 26.2366C86.3136 26.6046 87.0016 26.9086 87.8016 27.1486C88.6016 27.3886 89.4016 27.5086 90.2016 27.5086C91.1456 27.5086 91.8256 27.3806 92.2416 27.1246C92.6736 26.8686 92.8896 26.5246 92.8896 26.0926C92.8896 25.7406 92.7456 25.4766 92.4576 25.3006C92.1696 25.1086 91.7936 24.9646 91.3296 24.8686C90.8656 24.7726 90.3456 24.6846 89.7696 24.6046C89.2096 24.5246 88.6416 24.4206 88.0656 24.2926C87.5056 24.1486 86.9936 23.9486 86.5296 23.6926C86.0656 23.4206 85.6896 23.0606 85.4016 22.6126C85.1136 22.1646 84.9696 21.5726 84.9696 20.8366C84.9696 20.0206 85.2016 19.3166 85.6656 18.7246C86.1296 18.1166 86.7776 17.6526 87.6096 17.3326C88.4576 16.9966 89.4576 16.8286 90.6096 16.8286C91.4736 16.8286 92.3456 16.9246 93.2256 17.1166C94.1056 17.3086 94.8336 17.5806 95.4096 17.9326L94.2576 20.2126C93.6496 19.8446 93.0336 19.5966 92.4096 19.4686C91.8016 19.3246 91.1936 19.2526 90.5856 19.2526C89.6736 19.2526 88.9936 19.3886 88.5456 19.6606C88.1136 19.9326 87.8976 20.2766 87.8976 20.6926C87.8976 21.0766 88.0416 21.3646 88.3296 21.5566C88.6176 21.7486 88.9936 21.9006 89.4576 22.0126C89.9216 22.1246 90.4336 22.2206 90.9936 22.3006C91.5696 22.3646 92.1376 22.4686 92.6976 22.6126C93.2576 22.7566 93.7696 22.9566 94.2336 23.2126C94.7136 23.4526 95.0976 23.7966 95.3856 24.2446C95.6736 24.6926 95.8176 25.2766 95.8176 25.9966C95.8176 26.7966 95.5776 27.4926 95.0976 28.0846C94.6336 28.6766 93.9696 29.1406 93.1056 29.4766C92.2416 29.7966 91.2096 29.9566 90.0096 29.9566ZM100.321 29.7886V16.9726H103.321V29.7886H100.321ZM101.833 14.8606C101.273 14.8606 100.809 14.6846 100.441 14.3326C100.089 13.9806 99.9132 13.5566 99.9132 13.0606C99.9132 12.5486 100.089 12.1246 100.441 11.7886C100.809 11.4366 101.273 11.2606 101.833 11.2606C102.393 11.2606 102.849 11.4286 103.201 11.7646C103.569 12.0846 103.753 12.4926 103.753 12.9886C103.753 13.5166 103.577 13.9646 103.225 14.3326C102.873 14.6846 102.409 14.8606 101.833 14.8606ZM115.059 29.9566C113.715 29.9566 112.515 29.6766 111.459 29.1166C110.419 28.5406 109.603 27.7566 109.011 26.7646C108.419 25.7726 108.123 24.6446 108.123 23.3806C108.123 22.1006 108.419 20.9726 109.011 19.9966C109.603 19.0046 110.419 18.2286 111.459 17.6686C112.515 17.1086 113.715 16.8286 115.059 16.8286C116.307 16.8286 117.403 17.0846 118.347 17.5966C119.307 18.0926 120.035 18.8286 120.531 19.8046L118.227 21.1486C117.843 20.5406 117.371 20.0926 116.811 19.8046C116.267 19.5166 115.675 19.3726 115.035 19.3726C114.299 19.3726 113.635 19.5326 113.043 19.8526C112.451 20.1726 111.987 20.6366 111.651 21.2446C111.315 21.8366 111.147 22.5486 111.147 23.3806C111.147 24.2126 111.315 24.9326 111.651 25.5406C111.987 26.1326 112.451 26.5886 113.043 26.9086C113.635 27.2286 114.299 27.3886 115.035 27.3886C115.675 27.3886 116.267 27.2446 116.811 26.9566C117.371 26.6686 117.843 26.2206 118.227 25.6126L120.531 26.9566C120.035 27.9166 119.307 28.6606 118.347 29.1886C117.403 29.7006 116.307 29.9566 115.059 29.9566ZM129.436 29.9086C128.252 29.9086 127.34 29.5886 126.7 28.9486C126.06 28.3086 125.74 27.4046 125.74 26.2366V14.4046H127.444V26.1406C127.444 26.8766 127.628 27.4446 127.996 27.8446C128.38 28.2446 128.924 28.4446 129.628 28.4446C130.38 28.4446 131.004 28.2286 131.5 27.7966L132.1 29.0206C131.764 29.3246 131.356 29.5486 130.876 29.6926C130.412 29.8366 129.932 29.9086 129.436 29.9086ZM123.484 18.6046V17.1886H131.284V18.6046H123.484ZM142.029 29.9086C140.717 29.9086 139.565 29.6366 138.573 29.0926C137.581 28.5326 136.805 27.7726 136.245 26.8126C135.685 25.8366 135.405 24.7246 135.405 23.4766C135.405 22.2286 135.669 21.1246 136.197 20.1646C136.741 19.2046 137.477 18.4526 138.405 17.9086C139.349 17.3486 140.405 17.0686 141.573 17.0686C142.757 17.0686 143.805 17.3406 144.717 17.8846C145.645 18.4126 146.373 19.1646 146.901 20.1406C147.429 21.1006 147.693 22.2126 147.693 23.4766C147.693 23.5566 147.685 23.6446 147.669 23.7406C147.669 23.8206 147.669 23.9086 147.669 24.0046H136.701V22.7326H146.757L146.085 23.2366C146.085 22.3246 145.885 21.5166 145.485 20.8126C145.101 20.0926 144.573 19.5326 143.901 19.1326C143.229 18.7326 142.453 18.5326 141.573 18.5326C140.709 18.5326 139.933 18.7326 139.245 19.1326C138.557 19.5326 138.021 20.0926 137.637 20.8126C137.253 21.5326 137.061 22.3566 137.061 23.2846V23.5486C137.061 24.5086 137.269 25.3566 137.685 26.0926C138.117 26.8126 138.709 27.3806 139.461 27.7966C140.229 28.1966 141.101 28.3966 142.077 28.3966C142.845 28.3966 143.557 28.2606 144.213 27.9886C144.885 27.7166 145.461 27.3006 145.941 26.7406L146.901 27.8446C146.341 28.5166 145.637 29.0286 144.789 29.3806C143.957 29.7326 143.037 29.9086 142.029 29.9086ZM156.465 29.9086C155.425 29.9086 154.441 29.7646 153.513 29.4766C152.585 29.1726 151.857 28.7966 151.329 28.3486L152.097 27.0046C152.609 27.3886 153.265 27.7246 154.065 28.0126C154.865 28.2846 155.705 28.4206 156.585 28.4206C157.785 28.4206 158.649 28.2366 159.177 27.8686C159.705 27.4846 159.969 26.9806 159.969 26.3566C159.969 25.8926 159.817 25.5326 159.513 25.2766C159.225 25.0046 158.841 24.8046 158.361 24.6766C157.881 24.5326 157.345 24.4126 156.753 24.3166C156.161 24.2206 155.569 24.1086 154.977 23.9806C154.401 23.8526 153.873 23.6686 153.393 23.4286C152.913 23.1726 152.521 22.8286 152.217 22.3966C151.929 21.9646 151.785 21.3886 151.785 20.6686C151.785 19.9806 151.977 19.3646 152.361 18.8206C152.745 18.2766 153.305 17.8526 154.041 17.5486C154.793 17.2286 155.705 17.0686 156.777 17.0686C157.593 17.0686 158.409 17.1806 159.225 17.4046C160.041 17.6126 160.713 17.8926 161.241 18.2446L160.497 19.6126C159.937 19.2286 159.337 18.9566 158.697 18.7966C158.057 18.6206 157.417 18.5326 156.777 18.5326C155.641 18.5326 154.801 18.7326 154.257 19.1326C153.729 19.5166 153.465 20.0126 153.465 20.6206C153.465 21.1006 153.609 21.4766 153.897 21.7486C154.201 22.0206 154.593 22.2366 155.073 22.3966C155.569 22.5406 156.105 22.6606 156.681 22.7566C157.273 22.8526 157.857 22.9726 158.433 23.1166C159.025 23.2446 159.561 23.4286 160.041 23.6686C160.537 23.8926 160.929 24.2206 161.217 24.6526C161.521 25.0686 161.673 25.6206 161.673 26.3086C161.673 27.0446 161.465 27.6846 161.049 28.2286C160.649 28.7566 160.057 29.1726 159.273 29.4766C158.505 29.7646 157.569 29.9086 156.465 29.9086ZM170.704 29.9086C169.52 29.9086 168.608 29.5886 167.968 28.9486C167.328 28.3086 167.008 27.4046 167.008 26.2366V14.4046H168.712V26.1406C168.712 26.8766 168.896 27.4446 169.264 27.8446C169.648 28.2446 170.192 28.4446 170.896 28.4446C171.648 28.4446 172.272 28.2286 172.768 27.7966L173.368 29.0206C173.032 29.3246 172.624 29.5486 172.144 29.6926C171.68 29.8366 171.2 29.9086 170.704 29.9086ZM164.752 18.6046V17.1886H172.552V18.6046H164.752Z" fill="url(#paint1_linear_14_15797)"/>
</g>
<defs>
<linearGradient id="paint0_linear_14_15797" x1="5.45456" y1="25.1429" x2="22.5" y2="25.1429" gradientUnits="userSpaceOnUse">
<stop stop-color="#39CABD"/>
<stop offset="1" stop-color="#4AB5CA"/>
</linearGradient>
<linearGradient id="paint1_linear_14_15797" x1="18.2863" y1="21.3714" x2="208.247" y2="21.3714" gradientUnits="userSpaceOnUse">
<stop stop-color="#3DC3C0"/>
<stop offset="1" stop-color="#8568F5"/>
</linearGradient>
<clipPath id="clip0_14_15797">
<rect width="180" height="44" fill="white"/>
</clipPath>
</defs>
</svg>